<mxfile host="Electron" modified="2024-03-22T14:07:56.247Z" agent="Mozilla/5.0 (Windows NT 10.0; Win64; x64) AppleWebKit/537.36 (KHTML, like Gecko) draw.io/24.0.4 Chrome/120.0.6099.109 Electron/28.1.0 Safari/537.36" etag="6s8SyUiP6nDmrB0d4C7q" version="24.0.4" type="device">
  <diagram id="C5RBs43oDa-KdzZeNtuy" name="Page-1">
    <mxGraphModel dx="1707" dy="1743" grid="1" gridSize="10" guides="1" tooltips="1" connect="1" arrows="1" fold="1" page="1" pageScale="1" pageWidth="827" pageHeight="1169" background="#ffffff" math="0" shadow="1">
      <root>
        <mxCell id="WIyWlLk6GJQsqaUBKTNV-0" />
        <mxCell id="WIyWlLk6GJQsqaUBKTNV-1" parent="WIyWlLk6GJQsqaUBKTNV-0" />
        <mxCell id="z6874RrJR9DpCa5PvC3O-42" style="edgeStyle=none;curved=1;rounded=0;orthogonalLoop=1;jettySize=auto;html=1;fontSize=12;startSize=8;endSize=8;shadow=1;dashed=1;strokeColor=#000000;align=center;verticalAlign=middle;fontFamily=Helvetica;fontColor=default;labelBackgroundColor=default;endArrow=block;endFill=0;" edge="1" parent="WIyWlLk6GJQsqaUBKTNV-1" source="z6874RrJR9DpCa5PvC3O-10" target="z6874RrJR9DpCa5PvC3O-15">
          <mxGeometry relative="1" as="geometry" />
        </mxCell>
        <mxCell id="z6874RrJR9DpCa5PvC3O-10" value="Piedra" style="swimlane;fontStyle=1;align=center;verticalAlign=top;childLayout=stackLayout;horizontal=1;startSize=26;horizontalStack=0;resizeParent=1;resizeParentMax=0;resizeLast=0;collapsible=1;marginBottom=0;whiteSpace=wrap;html=1;swimlaneFillColor=default;fillColor=#9AC7BF;rounded=1;shadow=1;textShadow=1;" vertex="1" parent="WIyWlLk6GJQsqaUBKTNV-1">
          <mxGeometry x="-30" y="360" width="260" height="208" as="geometry" />
        </mxCell>
        <mxCell id="z6874RrJR9DpCa5PvC3O-85" value="+ &amp;lt;&amp;lt;create&amp;gt;&amp;gt; Piedra()" style="text;strokeColor=none;fillColor=none;align=left;verticalAlign=top;spacingLeft=4;spacingRight=4;overflow=hidden;rotatable=0;points=[[0,0.5],[1,0.5]];portConstraint=eastwest;whiteSpace=wrap;html=1;fontFamily=Helvetica;fontSize=12;fontColor=default;fontStyle=1;" vertex="1" parent="z6874RrJR9DpCa5PvC3O-10">
          <mxGeometry y="26" width="260" height="26" as="geometry" />
        </mxCell>
        <mxCell id="z6874RrJR9DpCa5PvC3O-51" value="+ jugarContra (otraJugada Jugada): String" style="text;strokeColor=none;fillColor=none;align=left;verticalAlign=top;spacingLeft=4;spacingRight=4;overflow=hidden;rotatable=0;points=[[0,0.5],[1,0.5]];portConstraint=eastwest;whiteSpace=wrap;html=1;fontFamily=Helvetica;fontSize=12;fontColor=default;fontStyle=1;" vertex="1" parent="z6874RrJR9DpCa5PvC3O-10">
          <mxGeometry y="52" width="260" height="26" as="geometry" />
        </mxCell>
        <mxCell id="z6874RrJR9DpCa5PvC3O-56" value="+ jugarContraSpock&lt;span style=&quot;background-color: initial;&quot;&gt;&amp;nbsp;(): String&lt;/span&gt;" style="text;strokeColor=none;fillColor=none;align=left;verticalAlign=top;spacingLeft=4;spacingRight=4;overflow=hidden;rotatable=0;points=[[0,0.5],[1,0.5]];portConstraint=eastwest;whiteSpace=wrap;html=1;fontFamily=Helvetica;fontSize=12;fontColor=default;fontStyle=1;" vertex="1" parent="z6874RrJR9DpCa5PvC3O-10">
          <mxGeometry y="78" width="260" height="26" as="geometry" />
        </mxCell>
        <mxCell id="z6874RrJR9DpCa5PvC3O-55" value="+ jugarContraLagarto&lt;span style=&quot;background-color: initial;&quot;&gt;&amp;nbsp;(): String&lt;/span&gt;" style="text;strokeColor=none;fillColor=none;align=left;verticalAlign=top;spacingLeft=4;spacingRight=4;overflow=hidden;rotatable=0;points=[[0,0.5],[1,0.5]];portConstraint=eastwest;whiteSpace=wrap;html=1;fontFamily=Helvetica;fontSize=12;fontColor=default;fontStyle=1;" vertex="1" parent="z6874RrJR9DpCa5PvC3O-10">
          <mxGeometry y="104" width="260" height="26" as="geometry" />
        </mxCell>
        <mxCell id="z6874RrJR9DpCa5PvC3O-54" value="+ jugarContraTijera&lt;span style=&quot;background-color: initial;&quot;&gt;&amp;nbsp;(): String&lt;/span&gt;" style="text;strokeColor=none;fillColor=none;align=left;verticalAlign=top;spacingLeft=4;spacingRight=4;overflow=hidden;rotatable=0;points=[[0,0.5],[1,0.5]];portConstraint=eastwest;whiteSpace=wrap;html=1;fontFamily=Helvetica;fontSize=12;fontColor=default;fontStyle=1;" vertex="1" parent="z6874RrJR9DpCa5PvC3O-10">
          <mxGeometry y="130" width="260" height="26" as="geometry" />
        </mxCell>
        <mxCell id="z6874RrJR9DpCa5PvC3O-53" value="+ jugarContraPapel&lt;span style=&quot;background-color: initial;&quot;&gt;&amp;nbsp;(): String&lt;/span&gt;" style="text;strokeColor=none;fillColor=none;align=left;verticalAlign=top;spacingLeft=4;spacingRight=4;overflow=hidden;rotatable=0;points=[[0,0.5],[1,0.5]];portConstraint=eastwest;whiteSpace=wrap;html=1;fontFamily=Helvetica;fontSize=12;fontColor=default;fontStyle=1;" vertex="1" parent="z6874RrJR9DpCa5PvC3O-10">
          <mxGeometry y="156" width="260" height="26" as="geometry" />
        </mxCell>
        <mxCell id="z6874RrJR9DpCa5PvC3O-52" value="+ jugarContraPiedra&lt;span style=&quot;background-color: initial;&quot;&gt;&amp;nbsp;(): String&lt;/span&gt;" style="text;strokeColor=none;fillColor=none;align=left;verticalAlign=top;spacingLeft=4;spacingRight=4;overflow=hidden;rotatable=0;points=[[0,0.5],[1,0.5]];portConstraint=eastwest;whiteSpace=wrap;html=1;fontFamily=Helvetica;fontSize=12;fontColor=default;fontStyle=1;" vertex="1" parent="z6874RrJR9DpCa5PvC3O-10">
          <mxGeometry y="182" width="260" height="26" as="geometry" />
        </mxCell>
        <mxCell id="z6874RrJR9DpCa5PvC3O-15" value="&amp;lt;&amp;lt;interface&amp;gt;&amp;gt;&lt;div&gt;Jugada&lt;/div&gt;" style="swimlane;fontStyle=1;align=center;verticalAlign=top;childLayout=stackLayout;horizontal=1;startSize=40;horizontalStack=0;resizeParent=1;resizeParentMax=0;resizeLast=0;collapsible=1;marginBottom=0;whiteSpace=wrap;html=1;rounded=1;shadow=1;strokeColor=default;swimlaneFillColor=default;fontFamily=Helvetica;fontSize=12;fontColor=default;fillColor=#9AC7BF;" vertex="1" parent="WIyWlLk6GJQsqaUBKTNV-1">
          <mxGeometry x="305" y="-40" width="270" height="196" as="geometry" />
        </mxCell>
        <mxCell id="z6874RrJR9DpCa5PvC3O-18" value="+ jugarContra (otraJugada Jugada): String" style="text;strokeColor=none;fillColor=none;align=left;verticalAlign=top;spacingLeft=4;spacingRight=4;overflow=hidden;rotatable=0;points=[[0,0.5],[1,0.5]];portConstraint=eastwest;whiteSpace=wrap;html=1;fontFamily=Helvetica;fontSize=12;fontColor=default;fontStyle=1;" vertex="1" parent="z6874RrJR9DpCa5PvC3O-15">
          <mxGeometry y="40" width="270" height="26" as="geometry" />
        </mxCell>
        <mxCell id="z6874RrJR9DpCa5PvC3O-35" value="+ jugarContraPiedra&lt;span style=&quot;background-color: initial;&quot;&gt;&amp;nbsp;(): String&lt;/span&gt;" style="text;strokeColor=none;fillColor=none;align=left;verticalAlign=top;spacingLeft=4;spacingRight=4;overflow=hidden;rotatable=0;points=[[0,0.5],[1,0.5]];portConstraint=eastwest;whiteSpace=wrap;html=1;fontFamily=Helvetica;fontSize=12;fontColor=default;fontStyle=1;" vertex="1" parent="z6874RrJR9DpCa5PvC3O-15">
          <mxGeometry y="66" width="270" height="26" as="geometry" />
        </mxCell>
        <mxCell id="z6874RrJR9DpCa5PvC3O-36" value="+ jugarContraPapel&lt;span style=&quot;background-color: initial;&quot;&gt;&amp;nbsp;(): String&lt;/span&gt;" style="text;strokeColor=none;fillColor=none;align=left;verticalAlign=top;spacingLeft=4;spacingRight=4;overflow=hidden;rotatable=0;points=[[0,0.5],[1,0.5]];portConstraint=eastwest;whiteSpace=wrap;html=1;fontFamily=Helvetica;fontSize=12;fontColor=default;fontStyle=1;" vertex="1" parent="z6874RrJR9DpCa5PvC3O-15">
          <mxGeometry y="92" width="270" height="26" as="geometry" />
        </mxCell>
        <mxCell id="z6874RrJR9DpCa5PvC3O-37" value="+ jugarContraTijera&lt;span style=&quot;background-color: initial;&quot;&gt;&amp;nbsp;(): String&lt;/span&gt;" style="text;strokeColor=none;fillColor=none;align=left;verticalAlign=top;spacingLeft=4;spacingRight=4;overflow=hidden;rotatable=0;points=[[0,0.5],[1,0.5]];portConstraint=eastwest;whiteSpace=wrap;html=1;fontFamily=Helvetica;fontSize=12;fontColor=default;fontStyle=1;" vertex="1" parent="z6874RrJR9DpCa5PvC3O-15">
          <mxGeometry y="118" width="270" height="26" as="geometry" />
        </mxCell>
        <mxCell id="z6874RrJR9DpCa5PvC3O-38" value="+ jugarContraLagarto&lt;span style=&quot;background-color: initial;&quot;&gt;&amp;nbsp;(): String&lt;/span&gt;" style="text;strokeColor=none;fillColor=none;align=left;verticalAlign=top;spacingLeft=4;spacingRight=4;overflow=hidden;rotatable=0;points=[[0,0.5],[1,0.5]];portConstraint=eastwest;whiteSpace=wrap;html=1;fontFamily=Helvetica;fontSize=12;fontColor=default;fontStyle=1;" vertex="1" parent="z6874RrJR9DpCa5PvC3O-15">
          <mxGeometry y="144" width="270" height="26" as="geometry" />
        </mxCell>
        <mxCell id="z6874RrJR9DpCa5PvC3O-39" value="+ jugarContraSpock&lt;span style=&quot;background-color: initial;&quot;&gt;&amp;nbsp;(): String&lt;/span&gt;" style="text;strokeColor=none;fillColor=none;align=left;verticalAlign=top;spacingLeft=4;spacingRight=4;overflow=hidden;rotatable=0;points=[[0,0.5],[1,0.5]];portConstraint=eastwest;whiteSpace=wrap;html=1;fontFamily=Helvetica;fontSize=12;fontColor=default;fontStyle=1;" vertex="1" parent="z6874RrJR9DpCa5PvC3O-15">
          <mxGeometry y="170" width="270" height="26" as="geometry" />
        </mxCell>
        <mxCell id="z6874RrJR9DpCa5PvC3O-43" style="edgeStyle=none;curved=1;rounded=0;orthogonalLoop=1;jettySize=auto;html=1;fontSize=12;startSize=8;endSize=8;shadow=1;dashed=1;strokeColor=#000000;align=center;verticalAlign=middle;fontFamily=Helvetica;fontColor=default;labelBackgroundColor=default;endArrow=block;endFill=0;" edge="1" parent="WIyWlLk6GJQsqaUBKTNV-1" source="z6874RrJR9DpCa5PvC3O-19" target="z6874RrJR9DpCa5PvC3O-15">
          <mxGeometry relative="1" as="geometry" />
        </mxCell>
        <mxCell id="z6874RrJR9DpCa5PvC3O-19" value="Papel" style="swimlane;fontStyle=1;align=center;verticalAlign=top;childLayout=stackLayout;horizontal=1;startSize=26;horizontalStack=0;resizeParent=1;resizeParentMax=0;resizeLast=0;collapsible=1;marginBottom=0;whiteSpace=wrap;html=1;swimlaneFillColor=default;fillColor=#9AC7BF;rounded=1;shadow=1;textShadow=1;" vertex="1" parent="WIyWlLk6GJQsqaUBKTNV-1">
          <mxGeometry x="312.5" y="405" width="255" height="206" as="geometry" />
        </mxCell>
        <mxCell id="z6874RrJR9DpCa5PvC3O-86" value="+ &amp;lt;&amp;lt;create&amp;gt;&amp;gt; Papel()" style="text;strokeColor=none;fillColor=none;align=left;verticalAlign=top;spacingLeft=4;spacingRight=4;overflow=hidden;rotatable=0;points=[[0,0.5],[1,0.5]];portConstraint=eastwest;whiteSpace=wrap;html=1;fontFamily=Helvetica;fontSize=12;fontColor=default;fontStyle=1;" vertex="1" parent="z6874RrJR9DpCa5PvC3O-19">
          <mxGeometry y="26" width="255" height="26" as="geometry" />
        </mxCell>
        <mxCell id="z6874RrJR9DpCa5PvC3O-57" value="+ jugarContra (otraJugada Jugada): String" style="text;strokeColor=none;fillColor=none;align=left;verticalAlign=top;spacingLeft=4;spacingRight=4;overflow=hidden;rotatable=0;points=[[0,0.5],[1,0.5]];portConstraint=eastwest;whiteSpace=wrap;html=1;fontFamily=Helvetica;fontSize=12;fontColor=default;fontStyle=1;" vertex="1" parent="z6874RrJR9DpCa5PvC3O-19">
          <mxGeometry y="52" width="255" height="24" as="geometry" />
        </mxCell>
        <mxCell id="z6874RrJR9DpCa5PvC3O-62" value="+ jugarContraSpock&lt;span style=&quot;background-color: initial;&quot;&gt;&amp;nbsp;(): String&lt;/span&gt;" style="text;strokeColor=none;fillColor=none;align=left;verticalAlign=top;spacingLeft=4;spacingRight=4;overflow=hidden;rotatable=0;points=[[0,0.5],[1,0.5]];portConstraint=eastwest;whiteSpace=wrap;html=1;fontFamily=Helvetica;fontSize=12;fontColor=default;fontStyle=1;" vertex="1" parent="z6874RrJR9DpCa5PvC3O-19">
          <mxGeometry y="76" width="255" height="26" as="geometry" />
        </mxCell>
        <mxCell id="z6874RrJR9DpCa5PvC3O-61" value="+ jugarContraLagarto&lt;span style=&quot;background-color: initial;&quot;&gt;&amp;nbsp;(): String&lt;/span&gt;" style="text;strokeColor=none;fillColor=none;align=left;verticalAlign=top;spacingLeft=4;spacingRight=4;overflow=hidden;rotatable=0;points=[[0,0.5],[1,0.5]];portConstraint=eastwest;whiteSpace=wrap;html=1;fontFamily=Helvetica;fontSize=12;fontColor=default;fontStyle=1;" vertex="1" parent="z6874RrJR9DpCa5PvC3O-19">
          <mxGeometry y="102" width="255" height="26" as="geometry" />
        </mxCell>
        <mxCell id="z6874RrJR9DpCa5PvC3O-60" value="+ jugarContraTijera&lt;span style=&quot;background-color: initial;&quot;&gt;&amp;nbsp;(): String&lt;/span&gt;" style="text;strokeColor=none;fillColor=none;align=left;verticalAlign=top;spacingLeft=4;spacingRight=4;overflow=hidden;rotatable=0;points=[[0,0.5],[1,0.5]];portConstraint=eastwest;whiteSpace=wrap;html=1;fontFamily=Helvetica;fontSize=12;fontColor=default;fontStyle=1;" vertex="1" parent="z6874RrJR9DpCa5PvC3O-19">
          <mxGeometry y="128" width="255" height="26" as="geometry" />
        </mxCell>
        <mxCell id="z6874RrJR9DpCa5PvC3O-59" value="+ jugarContraPapel&lt;span style=&quot;background-color: initial;&quot;&gt;&amp;nbsp;(): String&lt;/span&gt;" style="text;strokeColor=none;fillColor=none;align=left;verticalAlign=top;spacingLeft=4;spacingRight=4;overflow=hidden;rotatable=0;points=[[0,0.5],[1,0.5]];portConstraint=eastwest;whiteSpace=wrap;html=1;fontFamily=Helvetica;fontSize=12;fontColor=default;fontStyle=1;" vertex="1" parent="z6874RrJR9DpCa5PvC3O-19">
          <mxGeometry y="154" width="255" height="26" as="geometry" />
        </mxCell>
        <mxCell id="z6874RrJR9DpCa5PvC3O-58" value="+ jugarContraPiedra&lt;span style=&quot;background-color: initial;&quot;&gt;&amp;nbsp;(): String&lt;/span&gt;" style="text;strokeColor=none;fillColor=none;align=left;verticalAlign=top;spacingLeft=4;spacingRight=4;overflow=hidden;rotatable=0;points=[[0,0.5],[1,0.5]];portConstraint=eastwest;whiteSpace=wrap;html=1;fontFamily=Helvetica;fontSize=12;fontColor=default;fontStyle=1;" vertex="1" parent="z6874RrJR9DpCa5PvC3O-19">
          <mxGeometry y="180" width="255" height="26" as="geometry" />
        </mxCell>
        <mxCell id="z6874RrJR9DpCa5PvC3O-44" style="edgeStyle=none;curved=1;rounded=0;orthogonalLoop=1;jettySize=auto;html=1;fontSize=12;startSize=8;endSize=8;shadow=1;dashed=1;strokeColor=#000000;align=center;verticalAlign=middle;fontFamily=Helvetica;fontColor=default;labelBackgroundColor=default;endArrow=block;endFill=0;" edge="1" parent="WIyWlLk6GJQsqaUBKTNV-1" source="z6874RrJR9DpCa5PvC3O-23" target="z6874RrJR9DpCa5PvC3O-15">
          <mxGeometry relative="1" as="geometry" />
        </mxCell>
        <mxCell id="z6874RrJR9DpCa5PvC3O-23" value="Tijera" style="swimlane;fontStyle=1;align=center;verticalAlign=top;childLayout=stackLayout;horizontal=1;startSize=26;horizontalStack=0;resizeParent=1;resizeParentMax=0;resizeLast=0;collapsible=1;marginBottom=0;whiteSpace=wrap;html=1;swimlaneFillColor=default;fillColor=#9AC7BF;rounded=1;shadow=1;textShadow=1;" vertex="1" parent="WIyWlLk6GJQsqaUBKTNV-1">
          <mxGeometry x="650" y="360" width="260" height="208" as="geometry" />
        </mxCell>
        <mxCell id="z6874RrJR9DpCa5PvC3O-87" value="+ &amp;lt;&amp;lt;create&amp;gt;&amp;gt; Tijera()" style="text;strokeColor=none;fillColor=none;align=left;verticalAlign=top;spacingLeft=4;spacingRight=4;overflow=hidden;rotatable=0;points=[[0,0.5],[1,0.5]];portConstraint=eastwest;whiteSpace=wrap;html=1;fontFamily=Helvetica;fontSize=12;fontColor=default;fontStyle=1;" vertex="1" parent="z6874RrJR9DpCa5PvC3O-23">
          <mxGeometry y="26" width="260" height="26" as="geometry" />
        </mxCell>
        <mxCell id="z6874RrJR9DpCa5PvC3O-63" value="+ jugarContra (otraJugada Jugada): String" style="text;strokeColor=none;fillColor=none;align=left;verticalAlign=top;spacingLeft=4;spacingRight=4;overflow=hidden;rotatable=0;points=[[0,0.5],[1,0.5]];portConstraint=eastwest;whiteSpace=wrap;html=1;fontFamily=Helvetica;fontSize=12;fontColor=default;fontStyle=1;" vertex="1" parent="z6874RrJR9DpCa5PvC3O-23">
          <mxGeometry y="52" width="260" height="26" as="geometry" />
        </mxCell>
        <mxCell id="z6874RrJR9DpCa5PvC3O-68" value="+ jugarContraSpock&lt;span style=&quot;background-color: initial;&quot;&gt;&amp;nbsp;(): String&lt;/span&gt;" style="text;strokeColor=none;fillColor=none;align=left;verticalAlign=top;spacingLeft=4;spacingRight=4;overflow=hidden;rotatable=0;points=[[0,0.5],[1,0.5]];portConstraint=eastwest;whiteSpace=wrap;html=1;fontFamily=Helvetica;fontSize=12;fontColor=default;fontStyle=1;" vertex="1" parent="z6874RrJR9DpCa5PvC3O-23">
          <mxGeometry y="78" width="260" height="26" as="geometry" />
        </mxCell>
        <mxCell id="z6874RrJR9DpCa5PvC3O-67" value="+ jugarContraLagarto&lt;span style=&quot;background-color: initial;&quot;&gt;&amp;nbsp;(): String&lt;/span&gt;" style="text;strokeColor=none;fillColor=none;align=left;verticalAlign=top;spacingLeft=4;spacingRight=4;overflow=hidden;rotatable=0;points=[[0,0.5],[1,0.5]];portConstraint=eastwest;whiteSpace=wrap;html=1;fontFamily=Helvetica;fontSize=12;fontColor=default;fontStyle=1;" vertex="1" parent="z6874RrJR9DpCa5PvC3O-23">
          <mxGeometry y="104" width="260" height="26" as="geometry" />
        </mxCell>
        <mxCell id="z6874RrJR9DpCa5PvC3O-66" value="+ jugarContraTijera&lt;span style=&quot;background-color: initial;&quot;&gt;&amp;nbsp;(): String&lt;/span&gt;" style="text;strokeColor=none;fillColor=none;align=left;verticalAlign=top;spacingLeft=4;spacingRight=4;overflow=hidden;rotatable=0;points=[[0,0.5],[1,0.5]];portConstraint=eastwest;whiteSpace=wrap;html=1;fontFamily=Helvetica;fontSize=12;fontColor=default;fontStyle=1;" vertex="1" parent="z6874RrJR9DpCa5PvC3O-23">
          <mxGeometry y="130" width="260" height="26" as="geometry" />
        </mxCell>
        <mxCell id="z6874RrJR9DpCa5PvC3O-65" value="+ jugarContraPapel&lt;span style=&quot;background-color: initial;&quot;&gt;&amp;nbsp;(): String&lt;/span&gt;" style="text;strokeColor=none;fillColor=none;align=left;verticalAlign=top;spacingLeft=4;spacingRight=4;overflow=hidden;rotatable=0;points=[[0,0.5],[1,0.5]];portConstraint=eastwest;whiteSpace=wrap;html=1;fontFamily=Helvetica;fontSize=12;fontColor=default;fontStyle=1;" vertex="1" parent="z6874RrJR9DpCa5PvC3O-23">
          <mxGeometry y="156" width="260" height="26" as="geometry" />
        </mxCell>
        <mxCell id="z6874RrJR9DpCa5PvC3O-64" value="+ jugarContraPiedra&lt;span style=&quot;background-color: initial;&quot;&gt;&amp;nbsp;(): String&lt;/span&gt;" style="text;strokeColor=none;fillColor=none;align=left;verticalAlign=top;spacingLeft=4;spacingRight=4;overflow=hidden;rotatable=0;points=[[0,0.5],[1,0.5]];portConstraint=eastwest;whiteSpace=wrap;html=1;fontFamily=Helvetica;fontSize=12;fontColor=default;fontStyle=1;" vertex="1" parent="z6874RrJR9DpCa5PvC3O-23">
          <mxGeometry y="182" width="260" height="26" as="geometry" />
        </mxCell>
        <mxCell id="z6874RrJR9DpCa5PvC3O-40" style="edgeStyle=none;curved=1;rounded=0;orthogonalLoop=1;jettySize=auto;html=1;fontSize=12;startSize=8;endSize=8;strokeColor=#000000;dashed=1;shadow=1;textShadow=1;align=center;verticalAlign=middle;fontFamily=Helvetica;fontColor=default;labelBackgroundColor=default;endArrow=block;endFill=0;" edge="1" parent="WIyWlLk6GJQsqaUBKTNV-1" source="z6874RrJR9DpCa5PvC3O-27" target="z6874RrJR9DpCa5PvC3O-15">
          <mxGeometry relative="1" as="geometry" />
        </mxCell>
        <mxCell id="z6874RrJR9DpCa5PvC3O-27" value="Lagarto" style="swimlane;fontStyle=1;align=center;verticalAlign=top;childLayout=stackLayout;horizontal=1;startSize=26;horizontalStack=0;resizeParent=1;resizeParentMax=0;resizeLast=0;collapsible=1;marginBottom=0;whiteSpace=wrap;html=1;swimlaneFillColor=default;fillColor=#9AC7BF;rounded=1;shadow=1;textShadow=1;" vertex="1" parent="WIyWlLk6GJQsqaUBKTNV-1">
          <mxGeometry x="-80" y="80" width="270" height="204" as="geometry" />
        </mxCell>
        <mxCell id="z6874RrJR9DpCa5PvC3O-84" value="+ &amp;lt;&amp;lt;create&amp;gt;&amp;gt; Lagarto()" style="text;strokeColor=none;fillColor=none;align=left;verticalAlign=top;spacingLeft=4;spacingRight=4;overflow=hidden;rotatable=0;points=[[0,0.5],[1,0.5]];portConstraint=eastwest;whiteSpace=wrap;html=1;fontFamily=Helvetica;fontSize=12;fontColor=default;fontStyle=1;" vertex="1" parent="z6874RrJR9DpCa5PvC3O-27">
          <mxGeometry y="26" width="270" height="26" as="geometry" />
        </mxCell>
        <mxCell id="z6874RrJR9DpCa5PvC3O-45" value="+ jugarContra (otraJugada Jugada): String" style="text;strokeColor=none;fillColor=none;align=left;verticalAlign=top;spacingLeft=4;spacingRight=4;overflow=hidden;rotatable=0;points=[[0,0.5],[1,0.5]];portConstraint=eastwest;whiteSpace=wrap;html=1;fontFamily=Helvetica;fontSize=12;fontColor=default;fontStyle=1;" vertex="1" parent="z6874RrJR9DpCa5PvC3O-27">
          <mxGeometry y="52" width="270" height="24" as="geometry" />
        </mxCell>
        <mxCell id="z6874RrJR9DpCa5PvC3O-50" value="+ jugarContraSpock&lt;span style=&quot;background-color: initial;&quot;&gt;&amp;nbsp;(): String&lt;/span&gt;" style="text;strokeColor=none;fillColor=none;align=left;verticalAlign=top;spacingLeft=4;spacingRight=4;overflow=hidden;rotatable=0;points=[[0,0.5],[1,0.5]];portConstraint=eastwest;whiteSpace=wrap;html=1;fontFamily=Helvetica;fontSize=12;fontColor=default;fontStyle=1;" vertex="1" parent="z6874RrJR9DpCa5PvC3O-27">
          <mxGeometry y="76" width="270" height="26" as="geometry" />
        </mxCell>
        <mxCell id="z6874RrJR9DpCa5PvC3O-49" value="+ jugarContraLagarto&lt;span style=&quot;background-color: initial;&quot;&gt;&amp;nbsp;(): String&lt;/span&gt;" style="text;strokeColor=none;fillColor=none;align=left;verticalAlign=top;spacingLeft=4;spacingRight=4;overflow=hidden;rotatable=0;points=[[0,0.5],[1,0.5]];portConstraint=eastwest;whiteSpace=wrap;html=1;fontFamily=Helvetica;fontSize=12;fontColor=default;fontStyle=1;" vertex="1" parent="z6874RrJR9DpCa5PvC3O-27">
          <mxGeometry y="102" width="270" height="26" as="geometry" />
        </mxCell>
        <mxCell id="z6874RrJR9DpCa5PvC3O-48" value="+ jugarContraTijera&lt;span style=&quot;background-color: initial;&quot;&gt;&amp;nbsp;(): String&lt;/span&gt;" style="text;strokeColor=none;fillColor=none;align=left;verticalAlign=top;spacingLeft=4;spacingRight=4;overflow=hidden;rotatable=0;points=[[0,0.5],[1,0.5]];portConstraint=eastwest;whiteSpace=wrap;html=1;fontFamily=Helvetica;fontSize=12;fontColor=default;fontStyle=1;" vertex="1" parent="z6874RrJR9DpCa5PvC3O-27">
          <mxGeometry y="128" width="270" height="24" as="geometry" />
        </mxCell>
        <mxCell id="z6874RrJR9DpCa5PvC3O-47" value="+ jugarContraPapel&lt;span style=&quot;background-color: initial;&quot;&gt;&amp;nbsp;(): String&lt;/span&gt;" style="text;strokeColor=none;fillColor=none;align=left;verticalAlign=top;spacingLeft=4;spacingRight=4;overflow=hidden;rotatable=0;points=[[0,0.5],[1,0.5]];portConstraint=eastwest;whiteSpace=wrap;html=1;fontFamily=Helvetica;fontSize=12;fontColor=default;fontStyle=1;" vertex="1" parent="z6874RrJR9DpCa5PvC3O-27">
          <mxGeometry y="152" width="270" height="26" as="geometry" />
        </mxCell>
        <mxCell id="z6874RrJR9DpCa5PvC3O-46" value="+ jugarContraPiedra&lt;span style=&quot;background-color: initial;&quot;&gt;&amp;nbsp;(): String&lt;/span&gt;" style="text;strokeColor=none;fillColor=none;align=left;verticalAlign=top;spacingLeft=4;spacingRight=4;overflow=hidden;rotatable=0;points=[[0,0.5],[1,0.5]];portConstraint=eastwest;whiteSpace=wrap;html=1;fontFamily=Helvetica;fontSize=12;fontColor=default;fontStyle=1;" vertex="1" parent="z6874RrJR9DpCa5PvC3O-27">
          <mxGeometry y="178" width="270" height="26" as="geometry" />
        </mxCell>
        <mxCell id="z6874RrJR9DpCa5PvC3O-41" style="edgeStyle=none;curved=1;rounded=0;orthogonalLoop=1;jettySize=auto;html=1;fontSize=12;startSize=8;endSize=8;shadow=1;dashed=1;strokeColor=#000000;align=center;verticalAlign=middle;fontFamily=Helvetica;fontColor=default;labelBackgroundColor=default;endArrow=block;endFill=0;" edge="1" parent="WIyWlLk6GJQsqaUBKTNV-1" source="z6874RrJR9DpCa5PvC3O-31" target="z6874RrJR9DpCa5PvC3O-15">
          <mxGeometry relative="1" as="geometry" />
        </mxCell>
        <mxCell id="z6874RrJR9DpCa5PvC3O-31" value="Spock" style="swimlane;fontStyle=1;align=center;verticalAlign=top;childLayout=stackLayout;horizontal=1;startSize=26;horizontalStack=0;resizeParent=1;resizeParentMax=0;resizeLast=0;collapsible=1;marginBottom=0;whiteSpace=wrap;html=1;swimlaneFillColor=default;fillColor=#9AC7BF;rounded=1;shadow=1;textShadow=1;" vertex="1" parent="WIyWlLk6GJQsqaUBKTNV-1">
          <mxGeometry x="690" y="76" width="260" height="208" as="geometry" />
        </mxCell>
        <mxCell id="z6874RrJR9DpCa5PvC3O-88" value="+ &amp;lt;&amp;lt;create&amp;gt;&amp;gt; Spock()" style="text;strokeColor=none;fillColor=none;align=left;verticalAlign=top;spacingLeft=4;spacingRight=4;overflow=hidden;rotatable=0;points=[[0,0.5],[1,0.5]];portConstraint=eastwest;whiteSpace=wrap;html=1;fontFamily=Helvetica;fontSize=12;fontColor=default;fontStyle=1;" vertex="1" parent="z6874RrJR9DpCa5PvC3O-31">
          <mxGeometry y="26" width="260" height="26" as="geometry" />
        </mxCell>
        <mxCell id="z6874RrJR9DpCa5PvC3O-69" value="+ jugarContra (otraJugada Jugada): String" style="text;strokeColor=none;fillColor=none;align=left;verticalAlign=top;spacingLeft=4;spacingRight=4;overflow=hidden;rotatable=0;points=[[0,0.5],[1,0.5]];portConstraint=eastwest;whiteSpace=wrap;html=1;fontFamily=Helvetica;fontSize=12;fontColor=default;fontStyle=1;" vertex="1" parent="z6874RrJR9DpCa5PvC3O-31">
          <mxGeometry y="52" width="260" height="26" as="geometry" />
        </mxCell>
        <mxCell id="z6874RrJR9DpCa5PvC3O-74" value="+ jugarContraSpock&lt;span style=&quot;background-color: initial;&quot;&gt;&amp;nbsp;(): String&lt;/span&gt;" style="text;strokeColor=none;fillColor=none;align=left;verticalAlign=top;spacingLeft=4;spacingRight=4;overflow=hidden;rotatable=0;points=[[0,0.5],[1,0.5]];portConstraint=eastwest;whiteSpace=wrap;html=1;fontFamily=Helvetica;fontSize=12;fontColor=default;fontStyle=1;" vertex="1" parent="z6874RrJR9DpCa5PvC3O-31">
          <mxGeometry y="78" width="260" height="26" as="geometry" />
        </mxCell>
        <mxCell id="z6874RrJR9DpCa5PvC3O-73" value="+ jugarContraLagarto&lt;span style=&quot;background-color: initial;&quot;&gt;&amp;nbsp;(): String&lt;/span&gt;" style="text;strokeColor=none;fillColor=none;align=left;verticalAlign=top;spacingLeft=4;spacingRight=4;overflow=hidden;rotatable=0;points=[[0,0.5],[1,0.5]];portConstraint=eastwest;whiteSpace=wrap;html=1;fontFamily=Helvetica;fontSize=12;fontColor=default;fontStyle=1;" vertex="1" parent="z6874RrJR9DpCa5PvC3O-31">
          <mxGeometry y="104" width="260" height="26" as="geometry" />
        </mxCell>
        <mxCell id="z6874RrJR9DpCa5PvC3O-72" value="+ jugarContraTijera&lt;span style=&quot;background-color: initial;&quot;&gt;&amp;nbsp;(): String&lt;/span&gt;" style="text;strokeColor=none;fillColor=none;align=left;verticalAlign=top;spacingLeft=4;spacingRight=4;overflow=hidden;rotatable=0;points=[[0,0.5],[1,0.5]];portConstraint=eastwest;whiteSpace=wrap;html=1;fontFamily=Helvetica;fontSize=12;fontColor=default;fontStyle=1;" vertex="1" parent="z6874RrJR9DpCa5PvC3O-31">
          <mxGeometry y="130" width="260" height="26" as="geometry" />
        </mxCell>
        <mxCell id="z6874RrJR9DpCa5PvC3O-71" value="+ jugarContraPapel&lt;span style=&quot;background-color: initial;&quot;&gt;&amp;nbsp;(): String&lt;/span&gt;" style="text;strokeColor=none;fillColor=none;align=left;verticalAlign=top;spacingLeft=4;spacingRight=4;overflow=hidden;rotatable=0;points=[[0,0.5],[1,0.5]];portConstraint=eastwest;whiteSpace=wrap;html=1;fontFamily=Helvetica;fontSize=12;fontColor=default;fontStyle=1;" vertex="1" parent="z6874RrJR9DpCa5PvC3O-31">
          <mxGeometry y="156" width="260" height="26" as="geometry" />
        </mxCell>
        <mxCell id="z6874RrJR9DpCa5PvC3O-70" value="+ jugarContraPiedra&lt;span style=&quot;background-color: initial;&quot;&gt;&amp;nbsp;(): String&lt;/span&gt;" style="text;strokeColor=none;fillColor=none;align=left;verticalAlign=top;spacingLeft=4;spacingRight=4;overflow=hidden;rotatable=0;points=[[0,0.5],[1,0.5]];portConstraint=eastwest;whiteSpace=wrap;html=1;fontFamily=Helvetica;fontSize=12;fontColor=default;fontStyle=1;" vertex="1" parent="z6874RrJR9DpCa5PvC3O-31">
          <mxGeometry y="182" width="260" height="26" as="geometry" />
        </mxCell>
        <mxCell id="z6874RrJR9DpCa5PvC3O-79" value="Juego" style="swimlane;fontStyle=1;align=center;verticalAlign=top;childLayout=stackLayout;horizontal=1;startSize=26;horizontalStack=0;resizeParent=1;resizeParentMax=0;resizeLast=0;collapsible=1;marginBottom=0;whiteSpace=wrap;html=1;rounded=1;shadow=1;strokeColor=default;swimlaneFillColor=default;fontFamily=Helvetica;fontSize=12;fontColor=default;fillColor=#9AC7BF;" vertex="1" parent="WIyWlLk6GJQsqaUBKTNV-1">
          <mxGeometry x="285" y="-160" width="310" height="78" as="geometry" />
        </mxCell>
        <mxCell id="z6874RrJR9DpCa5PvC3O-82" value="+ &amp;lt;&amp;lt;create&amp;gt;&amp;gt; Juego()" style="text;strokeColor=none;fillColor=none;align=left;verticalAlign=top;spacingLeft=4;spacingRight=4;overflow=hidden;rotatable=0;points=[[0,0.5],[1,0.5]];portConstraint=eastwest;whiteSpace=wrap;html=1;fontFamily=Helvetica;fontSize=12;fontColor=default;fontStyle=1;" vertex="1" parent="z6874RrJR9DpCa5PvC3O-79">
          <mxGeometry y="26" width="310" height="26" as="geometry" />
        </mxCell>
        <mxCell id="z6874RrJR9DpCa5PvC3O-83" value="+ jugarPartida(jugada Jugada, otraJugada): String" style="text;strokeColor=none;fillColor=none;align=left;verticalAlign=top;spacingLeft=4;spacingRight=4;overflow=hidden;rotatable=0;points=[[0,0.5],[1,0.5]];portConstraint=eastwest;whiteSpace=wrap;html=1;fontFamily=Helvetica;fontSize=12;fontColor=default;fontStyle=1;" vertex="1" parent="z6874RrJR9DpCa5PvC3O-79">
          <mxGeometry y="52" width="310" height="26" as="geometry" />
        </mxCell>
      </root>
    </mxGraphModel>
  </diagram>
</mxfile>
